PathFileType	4	(X/Y/Z)	C:\Users\Basilio\Documents\Thesis Gigler\squatting_fais\c3dfiles\077\SLS_front_pre5\markers_experimental.trc
DataRate	CameraRate	NumFrames	NumMarkers	Units	OrigDataRate	OrigDataStartFrame	OrigNumFrames
200.000000	200.000000	4	60	mm	200.000000	196	1572
Frame#	Time	FHD			LBHD			RBHD			C7			T10			CLAV			LSHO			LUUPA			LMUPA			LDUPA			LLEP			LMEP			LRAD			LUL			LRFIN			RSHO			RUPA1			RMUPA			RDUPA			RLEP			RMEP			RRAD			RUL			RUFIN			LASI			RASI			USACR			LSACR			RSACR			LTHI1			LTHI2			LTHI3			LTHI4			LLFC			LMFC			LTIB1			LTIB2			LTIB3			LTIB4			LLMAL			LHEE			LMT1			LMT2			LMT5			RTHI			RTHI2			RTHI3			RTHI4			RLFC			RMFC			RTIB1			RTIB2			RTIB3			RTIB4			RLMAL			RMMAL			RHEE			RMT1			RMT2			RMT5			
		X1	Y1	Z1	X2	Y2	Z2	X3	Y3	Z3	X4	Y4	Z4	X5	Y5	Z5	X6	Y6	Z6	X7	Y7	Z7	X8	Y8	Z8	X9	Y9	Z9	X10	Y10	Z10	X11	Y11	Z11	X12	Y12	Z12	X13	Y13	Z13	X14	Y14	Z14	X15	Y15	Z15	X16	Y16	Z16	X17	Y17	Z17	X18	Y18	Z18	X19	Y19	Z19	X20	Y20	Z20	X21	Y21	Z21	X22	Y22	Z22	X23	Y23	Z23	X24	Y24	Z24	X25	Y25	Z25	X26	Y26	Z26	X27	Y27	Z27	X28	Y28	Z28	X29	Y29	Z29	X30	Y30	Z30	X31	Y31	Z31	X32	Y32	Z32	X33	Y33	Z33	X34	Y34	Z34	X35	Y35	Z35	X36	Y36	Z36	X37	Y37	Z37	X38	Y38	Z38	X39	Y39	Z39	X40	Y40	Z40	X41	Y41	Z41	X42	Y42	Z42	X43	Y43	Z43	X44	Y44	Z44	X45	Y45	Z45	X46	Y46	Z46	X47	Y47	Z47	X48	Y48	Z48	X49	Y49	Z49	X50	Y50	Z50	X51	Y51	Z51	X52	Y52	Z52	X53	Y53	Z53	X54	Y54	Z54	X55	Y55	Z55	X56	Y56	Z56	X57	Y57	Z57	X58	Y58	Z58	X59	Y59	Z59	X60	Y60	Z60	

197	0.98	-284.6185607910157	1875.009887695313	-943.074401855469	-428.3212280273439	1763.41259765625	-996.909362792969	-422.4642028808595	1763.493774414063	-851.2551269531252	-474.5266723632814	1615.278198242188	-930.4831542968752	-471.249725341797	1283.7373046875	-919.4319458007815	-306.2285156250001	1574.698486328125	-935.6050415039065	-366.1409301757813	1592.929565429688	-1128.704467773438	-312.5045776367188	1381.870727539063	-1233.472045898438	-265.0852355957032	1379.23779296875	-1224.310302734375	-281.0664672851563	1322.229248046875	-1243.583251953125	-241.2901611328126	1271.488525390625	-1247.22802734375	-285.3460083007813	1232.181518554688	-1198.423217773438	-30.3144702911377	1063.81591796875	-1155.654296875	-47.83195495605469	1045.822021484375	-1233.916748046875	44.46380996704102	1010.210144042969	-1172.94482421875	-336.8408813476563	1588.455200195313	-743.0004882812501	-282.9833679199219	1390.365844726563	-629.8189697265626	-236.3806762695313	1386.725952148438	-644.2580566406251	-246.4680328369141	1331.580322265625	-619.5393066406251	-208.3111724853516	1278.647216796875	-617.8023071289064	-253.9583435058594	1235.929321289063	-667.8413085937501	-32.78766632080079	1049.373901367188	-674.7772827148439	-34.17782974243165	1043.425415039063	-594.7810058593751	25.75914573669434	970.4548950195315	-663.3491821289064	-279.8482666015626	1082.3701171875	-1060.378784179688	-265.9933776855469	1109.163330078125	-773.5693969726565	-476.0320434570314	1170.763427734375	-913.215759277344	-482.3350830078126	1139.55322265625	-941.2695312500002	-481.683807373047	1138.053100585938	-885.9483032226565	-354.6020812988282	872.1551513671877	-1115.048217773438	-329.0934753417969	790.986022949219	-1114.556884765625	-280.4272155761719	791.4631958007815	-1111.610595703125	-360.2363281250001	741.0819702148439	-1097.721069335938	-339.9151306152344	593.5598754882814	-1080.22265625	-325.8094482421876	565.2284545898439	-948.6418457031252	-312.4620056152344	367.5832214355469	-1022.839172363281	-346.8663330078126	327.0932617187501	-1096.205810546875	-315.8268127441407	321.9700622558594	-1062.02490234375	-323.9437561035157	242.4573669433594	-1035.943969726563	-390.0722961425782	127.7607192993164	-1081.44287109375	-444.9258422851564	98.44696044921878	-1031.922607421875	-237.3706970214844	56.2473602294922	-1013.19580078125	-231.125717163086	60.48120117187501	-1056.247924804688	-358.0620117187501	136.0456848144532	-998.7349243164065	-385.0249328613282	771.7330322265627	-735.4193725585939	-355.6263427734376	712.9566650390626	-732.8023681640626	-321.6630554199219	710.7589111328126	-733.7034912109376	-389.5164489746095	640.6011352539064	-752.5561523437501	-390.9541320800782	570.2269897460939	-755.5437011718751	-351.2340393066407	556.3352050781251	-880.9500122070315	-338.2126464843751	434.0485229492189	-771.9738769531252	-401.6417846679689	352.8333740234376	-743.5088500976564	-356.6459350585938	349.4747314453126	-759.9993286132814	-349.4501342773438	305.1463012695313	-800.1724853515627	-415.5926208496095	126.0871734619141	-764.7876586914064	-382.6198730468751	133.7691192626953	-851.9759521484377	-473.1863403320314	101.9596557617188	-824.2352294921877	-253.8113708496094	62.91027832031251	-802.4788208007815	-260.8469238281251	61.4308204650879	-765.2909545898439	-282.7289123535157	43.4706039428711	-718.0862426757814	
198	0.985	-285.4829101562501	1875.069458007813	-942.911560058594	-429.5148010253907	1764.1513671875	-997.094177246094	-423.1004943847657	1762.236694335938	-850.3682250976565	-475.5354614257814	1615.242065429688	-930.5397949218752	-471.6329040527345	1283.577392578125	-919.4841918945315	-306.9461364746094	1574.80224609375	-935.4737548828127	-366.5935668945313	1593.348876953125	-1128.44091796875	-309.8290405273438	1383.761474609375	-1233.95654296875	-261.9122619628907	1381.848510742188	-1224.548828125	-276.4444274902344	1324.739990234375	-1244.182373046875	-234.9941711425782	1274.873657226563	-1247.727783203125	-279.2360229492188	1234.614135742188	-1199.456420898438	-21.31159400939942	1070.84814453125	-1156.865844726563	-38.15661621093751	1053.176879882813	-1234.901489257813	54.58891677856447	1018.446166992188	-1173.708129882813	-337.4414062500001	1588.554565429688	-743.0816650390626	-280.5118408203126	1392.142211914063	-629.4934082031251	-234.0578308105469	1388.903564453125	-644.2914428710939	-242.900863647461	1333.968994140625	-619.2352294921876	-203.4526977539063	1281.93701171875	-617.7658081054689	-248.6610107421876	1237.9951171875	-667.1038818359376	-24.10556221008301	1055.611083984375	-674.3938598632814	-25.02342414855958	1049.888061523438	-594.5075683593751	37.02161407470704	978.8577880859377	-662.7672729492189	-280.2310485839844	1082.347290039063	-1060.46533203125	-266.1912231445313	1109.180419921875	-773.6433715820315	-476.4283447265626	1170.525024414063	-913.1890258789065	-482.5755920410157	1139.599487304688	-941.317565917969	-482.0689086914064	1137.949096679688	-885.9499511718752	-354.7330932617188	872.1124267578127	-1115.064086914063	-329.2558288574219	790.842224121094	-1114.57568359375	-280.7558288574219	791.4673461914065	-1111.647094726563	-362.0999755859376	741.5041503906251	-1097.956787109375	-340.1463623046876	593.5487670898439	-1080.233032226563	-326.0486450195313	565.2273559570314	-948.6409912109377	-313.3573303222657	366.8652038574219	-1023.282653808594	-346.9833068847657	327.0691223144532	-1096.223388671875	-316.0420227050782	321.9315185546876	-1062.09765625	-324.0445251464844	242.4299011230469	-1036.003051757813	-390.0176086425782	127.670280456543	-1081.466186523438	-444.9063720703126	98.40537261962893	-1031.920288085938	-237.4449768066407	56.19799423217775	-1013.15087890625	-231.9582061767579	58.5169143676758	-1055.92041015625	-358.0560913085938	136.048095703125	-998.7429199218752	-385.1526794433595	771.7230224609377	-735.4705200195314	-355.8305969238282	712.8976440429689	-732.8013916015626	-321.8257751464844	710.7695312500001	-733.7103881835939	-389.6734008789064	640.6522216796876	-752.5745239257814	-391.144500732422	570.1927490234376	-755.5383300781251	-351.5028686523438	556.2896728515626	-881.0153808593752	-338.3743591308594	434.0430603027345	-771.993591308594	-401.7226562500001	352.8894653320313	-743.5465087890626	-356.6964721679688	349.6064758300782	-760.0197753906251	-349.4908447265626	305.1236572265626	-800.1126098632815	-415.5983276367189	126.0747222900391	-764.7694702148439	-382.5549621582032	133.7069244384766	-851.953063964844	-473.1350097656251	101.9172515869141	-824.2327270507815	-253.8367462158204	62.88941955566408	-802.5186157226565	-260.8146667480469	61.44748687744142	-765.2586669921876	-282.7463378906251	43.46394348144532	-718.0764160156251	
199	0.99	-286.1293945312501	1874.940185546875	-942.582946777344	-430.4833984375001	1764.321655273438	-997.0974121093752	-424.1543273925782	1763.360229492188	-851.2640380859377	-476.3338623046876	1615.149169921875	-930.4100341796877	-472.0023803710939	1283.39892578125	-919.4580078125002	-307.5044250488282	1574.742553710938	-935.3566894531252	-367.0848693847657	1593.663452148438	-1128.22998046875	-306.4238586425782	1386.0361328125	-1234.430419921875	-258.4211120605469	1385.099975585938	-1224.95263671875	-271.8329162597657	1327.475830078125	-1244.8056640625	-229.7961578369141	1278.51904296875	-1248.507934570313	-272.9320373535157	1237.179809570313	-1200.445922851563	-12.17490005493164	1078.089477539063	-1157.09814453125	-28.23074340820313	1060.79052734375	-1235.700805664063	64.65114593505861	1026.777465820313	-1174.216918945313	-338.0714721679688	1588.497436523438	-743.2246704101564	-278.1607055664063	1393.86376953125	-629.5225219726564	-231.5246887207032	1391.562622070313	-644.1333618164064	-239.2586364746094	1336.445556640625	-618.9435424804689	-198.5000610351563	1285.3603515625	-618.0690307617189	-243.3357696533204	1240.581787109375	-666.4110717773439	-15.0237684249878	1062.464721679688	-674.2451171875001	-15.53019809722901	1056.92919921875	-594.3197021484376	48.04970932006837	987.791442871094	-662.4267578125001	-280.5537719726563	1082.409545898438	-1060.549438476563	-266.4358825683594	1109.1845703125	-773.6663208007815	-476.7994689941407	1170.30419921875	-913.2302246093752	-482.908660888672	1139.557373046875	-941.2823486328127	-482.4570922851564	1137.782958984375	-885.9296875000002	-355.1175537109376	872.0931396484377	-1115.12890625	-330.5442199707032	791.1895751953127	-1114.9072265625	-280.9118652343751	791.3894042968752	-1111.657958984375	-362.4243774414063	741.5396118164064	-1098.006713867188	-340.3009948730469	593.5463867187501	-1080.198486328125	-326.2534179687501	565.2272949218751	-948.6597900390627	-312.5312194824219	367.6753540039063	-1022.83447265625	-347.1603088378907	327.0567932128907	-1096.198608398438	-316.1098327636719	322.0108032226563	-1062.091796875	-324.1425476074219	242.4384460449219	-1036.015502929688	-390.0439758300782	127.6439208984375	-1081.463134765625	-444.9116821289064	98.46118164062503	-1031.953247070313	-237.359115600586	56.22523880004884	-1013.214050292969	-231.2676696777344	60.5145606994629	-1056.31103515625	-358.0725097656251	136.0168151855469	-998.7913818359377	-385.4176330566407	771.575866699219	-735.5302734375001	-356.0226745605469	712.8782958984376	-732.8313598632814	-322.0438537597657	710.7933349609376	-733.7857055664064	-389.8123474121095	640.6757812500001	-752.6022338867189	-391.374237060547	570.1567993164064	-755.5782470703126	-351.7469787597657	556.3527221679689	-881.168884277344	-338.5152893066407	434.1052551269532	-772.0144653320315	-401.8506164550782	352.8576660156251	-743.5594482421876	-356.8464355468751	349.5218811035157	-760.0877685546876	-349.5392150878907	305.1129150390626	-800.0891723632815	-415.5755920410157	126.0820617675782	-764.7474365234376	-382.5757446289063	133.684310913086	-851.9812622070315	-473.1225891113282	101.9194717407227	-824.255554199219	-253.7985076904297	62.95692062377931	-802.3645629882815	-260.8283691406251	61.46661376953126	-765.2619018554689	-282.7167053222657	43.5034294128418	-718.0853271484376	
200	0.995	-286.6445007324219	1874.968994140625	-942.250427246094	-431.0894775390626	1764.244140625	-997.0237426757815	-424.9609680175782	1762.957397460938	-850.7346801757815	-477.2654418945314	1614.920043945313	-930.5014648437502	-472.4207763671876	1283.2958984375	-919.5828247070315	-308.4742126464844	1574.890380859375	-935.3649902343752	-367.5455627441407	1593.957153320313	-1128.026611328125	-302.5962219238282	1388.041137695313	-1234.82958984375	-255.0212860107422	1388.485717773438	-1225.176025390625	-267.4341735839844	1330.478759765625	-1245.379028320313	-224.4629211425782	1282.448486328125	-1248.928588867188	-265.3182373046876	1239.800170898438	-1201.424682617188	-2.414708137512207	1086.018188476563	-1158.76025390625	-18.28343200683594	1068.62744140625	-1236.350708007813	74.84764862060548	1035.828002929688	-1174.7177734375	-338.7120666503907	1588.513061523438	-743.3274536132814	-275.8305664062501	1395.135131835938	-629.6860351562501	-228.9827880859376	1394.402709960938	-643.9647827148439	-235.6645202636719	1339.067138671875	-618.6606445312501	-193.8481140136719	1288.762329101563	-617.9595947265626	-238.0416412353516	1243.169677734375	-665.9523925781251	-6.121081352233888	1069.242919921875	-674.1137695312501	-6.134505748748781	1064.298095703125	-594.1813964843751	59.42504501342775	996.722351074219	-661.8298950195314	-281.0887145996094	1082.088989257813	-1060.992065429688	-266.7754516601563	1109.150024414063	-773.7332153320315	-477.1972961425782	1170.084228515625	-913.2233886718752	-483.2386474609376	1139.441284179688	-941.2711181640627	-482.6658935546876	1137.658813476563	-885.8988037109377	-355.3965454101563	872.1067504882815	-1115.187377929688	-330.8188171386719	791.215026855469	-1114.963989257813	-281.1336975097657	791.3159179687502	-1111.668701171875	-362.7567138671876	741.5285034179689	-1098.0322265625	-340.7890014648438	593.4904785156251	-1080.237182617188	-326.4144592285157	565.1649169921876	-948.673522949219	-313.6055297851563	366.9209594726563	-1023.372192382813	-347.2798461914063	327.0574035644532	-1096.237915039063	-316.2326354980469	322.0122985839844	-1062.1337890625	-324.1864624023438	242.3727722167969	-1036.037231445313	-390.0563354492189	127.6799621582032	-1081.494018554688	-444.921600341797	98.39712524414065	-1031.93994140625	-237.3416900634766	56.19019317626955	-1013.176147460938	-231.1836700439454	60.51826095581056	-1056.266967773438	-358.0778198242188	136.0342864990235	-998.7801513671877	-385.5745544433595	771.5967407226565	-735.5794677734376	-356.2766723632813	712.7834472656251	-732.9522094726564	-322.2709960937501	710.8390502929689	-733.8930053710939	-390.0135192871095	640.7426757812501	-752.6607666015626	-391.6760559082032	570.1442871093751	-755.6168823242189	-352.0449523925782	556.3345336914064	-881.2786865234377	-338.3628845214844	434.0114135742189	-771.9060668945315	-401.9385681152345	352.9094543457032	-743.5391845703126	-356.9027709960938	349.5346069335938	-760.1207885742189	-349.5835876464844	304.9979858398438	-800.0677490234377	-415.5992736816407	126.0344161987305	-764.7868041992189	-382.4995422363282	133.642074584961	-851.9529418945315	-473.1708984375001	101.9200286865235	-824.228698730469	-253.8005981445313	62.88911819458009	-802.483581542969	-260.8150024414063	61.42540359497072	-765.2460937500001	-282.7454833984376	43.46433639526368	-718.1089477539064	
